<svg xmlns="http://www.w3.org/2000/svg" version="1.1" xmlns:xlink="http://www.w3.org/1999/xlink" xmlns:svgjs="http://svgjs.com/svgjs" width="1920" height="1080" preserveAspectRatio="none" viewBox="0 0 1920 1080"><g mask="url(&quot;#SvgjsMask2087&quot;)" fill="none"><rect width="1920" height="1080" x="0" y="0" fill="rgba(68, 4, 75, 1)"></rect><path d="M0,669.068C119.545,639.833,195.836,531.723,304.056,473.121C424.477,407.912,585.34,413.525,670.278,306.106C760.342,192.205,801.336,30.613,765.151,-110.012C729.707,-247.757,595.806,-331.608,483.669,-419.102C389.422,-492.638,285.66,-549.583,168.903,-575.231C57.89,-599.617,-51.724,-572.13,-164.892,-561.57C-307.777,-548.237,-476.759,-601.67,-582.891,-505.078C-688.146,-409.284,-667.86,-239.215,-675.25,-97.086C-682.059,33.883,-666.769,160.991,-623.967,284.956C-577.438,419.716,-538.857,574.83,-417.451,649.567C-296.372,724.103,-138.112,702.844,0,669.068" fill="#2c0331"></path><path d="M1920 1769.8220000000001C2050.637 1774.5230000000001 2175.28 1718.9569999999999 2283.7 1645.9279999999999 2390.522 1573.975 2473.375 1474.247 2530.32 1358.724 2588.508 1240.6779999999999 2652.41 1105.699 2611.684 980.551 2571.54 857.192 2419.376 818.133 2325.323 728.7850000000001 2242.992 650.572 2200.167 527.942 2093.689 488.46900000000005 1985.18 448.24300000000005 1866.832 488.395 1754.768 517.273 1639.179 547.059 1511.617 568.192 1433.63 658.558 1355.685 748.876 1341.626 877.45 1340.9769999999999 996.749 1340.385 1105.501 1392.232 1201.78 1430.1190000000001 1303.721 1471.279 1414.467 1487.1480000000001 1538.904 1572.742 1620.3429999999998 1665.9279999999999 1709.005 1791.4569999999999 1765.196 1920 1769.8220000000001" fill="#5c0565"></path></g><defs><mask id="SvgjsMask2087"><rect width="1920" height="1080" fill="#ffffff"></rect></mask></defs></svg>